PathFileType	4	(X/Y/Z)	D:\MotionData\Pi-Spi Study\20230118_AMCsubject1\Trimmed_right_abd_18001_rotated.trc
DataRate	CameraRate	NumFrames	NumMarkers	Units	OrigDataRate	OrigDataStartFrame	OrigNumFrames
200.00	200.00	       6	35	mm	200.00	101	       200
Frame#	Time	C7			Sternum			r_AMC1			r_AMC2			r_AMC3			l_AMC1			l_AMC2			l_AMC3			PX			T8			r_humerous			r_elbow_medial			r_elbow_lateral			r_forearm			r_wrist_radius			r_wrist_ulna			r_MCP_1			r_MCP_3			l_humerous			l_elbow_medial			l_elbow_lateral			l_forearm			l_wrist_radius			l_wrist_ulna			l_MCP_1			l_MCP_3			r_ASIS			r_PSIS			l_ASIS			l_PSIS			r_IC			l_IC			TS			AI			AA			
		X1	Y1	Z1	X2	Y2	Z2	X3	Y3	Z3	X4	Y4	Z4	X5	Y5	Z5	X6	Y6	Z6	X7	Y7	Z7	X8	Y8	Z8	X9	Y9	Z9	X10	Y10	Z10	X11	Y11	Z11	X12	Y12	Z12	X13	Y13	Z13	X14	Y14	Z14	X15	Y15	Z15	X16	Y16	Z16	X17	Y17	Z17	X18	Y18	Z18	X19	Y19	Z19	X20	Y20	Z20	X21	Y21	Z21	X22	Y22	Z22	X23	Y23	Z23	X24	Y24	Z24	X25	Y25	Z25	X26	Y26	Z26	X27	Y27	Z27	X28	Y28	Z28	X29	Y29	Z29	X30	Y30	Z30	X31	Y31	Z31	X32	Y32	Z32	X33	Y33	Z33	X34	Y34	Z34	X35	Y35	Z35	

101	0.5	192.3472	1374.3404	-245.7744	328.7353	1322.2817	-223.5706	156.347	1342.3556	-115.1964	185.3948	1378.1941	-97.2614	188.0491	1396.7831	-137.3925	220.5221	1323.0666	-398.3776	260.916	1316.4602	-429.2453	282.4305	1354.0901	-400.8092	390.5198	1130.8068	-207.3061	158.2649	1190.9692	-244.4632	265.0458	1474.9609	-78.7796	352.8152	1556.0785	13.6335	295.7996	1579.0346	13.7872	335.3352	1741.1409	27.7067	376.5034	1807.5118	3.3359	364.9477	1800.712	54.1241	396.2513	1889.03	6.2841	389.0866	1883.145	53.5181	344.42	1126.9126	-425.5935	296.278	993.5187	-380.6056	287.82	987.3638	-432.7472	322.6206	841.6218	-473.6544	336.2827	764.6543	-457.6447	358.3939	775.0585	-493.4496	351.3471	689.4982	-468.5762	365.9101	698.6771	-510.4793	351.5915	909.5533	-76.1314	169.45	929.7907	-169.5788	368.1173	892.7668	-335.0814	176.1675	922.91	-272.2258	269.7045	972.3052	-53.5984	282.2485	940.9589	-378.6227	101.0695	1294.8971	-158.3739	119.6989	1220.9221	-90.2954	136.5046	1389.1954	-54.1741
102	0.505	192.3676	1374.3439	-245.7799	328.7631	1322.2852	-223.5931	156.3532	1342.365	-115.1972	185.4124	1378.1775	-97.2359	188.0505	1396.7957	-137.3939	220.5446	1323.0549	-398.4024	260.9464	1316.4905	-429.2611	282.4384	1354.1084	-400.8126	390.5227	1130.8324	-207.3151	158.2556	1190.9731	-244.4722	265.05	1474.9469	-78.8248	352.8157	1556.0397	13.6007	295.801	1579.0295	13.7687	335.3216	1741.1426	27.7237	376.4821	1807.5211	3.3195	364.9524	1800.6979	54.1529	396.2669	1889.0376	6.2606	389.0815	1883.1325	53.5304	344.4507	1126.8893	-425.5955	296.3038	993.5261	-380.6579	287.8135	987.3729	-432.8267	322.6626	841.644	-473.7291	336.3667	764.6899	-457.7055	358.4797	775.0853	-493.5026	351.4624	689.509	-468.6125	366.0316	698.6884	-510.5525	351.6253	909.5656	-76.1657	169.4552	929.8015	-169.5845	368.1014	892.7434	-335.1001	176.1947	922.9091	-272.2166	269.7417	972.272	-53.615	282.2762	940.9337	-378.6642	101.0758	1294.8737	-158.3662	119.7151	1220.8663	-90.3226	136.5006	1389.1329	-54.1051
103	0.51	192.363	1374.3434	-245.7875	328.7737	1322.2966	-223.6036	156.3618	1342.352	-115.1798	185.424	1378.1803	-97.2222	188.0564	1396.7738	-137.3918	220.572	1323.0638	-398.4258	260.9345	1316.483	-429.2713	282.4427	1354.0986	-400.8313	390.5569	1130.8566	-207.3304	158.295	1190.97	-244.4928	265.0243	1474.9526	-78.8082	352.8326	1556.0364	13.567	295.808	1579.0255	13.7571	335.3127	1741.1282	27.7075	376.4876	1807.514	3.3207	364.9362	1800.7172	54.1126	396.2502	1889.0446	6.254	389.084	1883.1422	53.5092	344.4679	1126.9465	-425.6166	296.3687	993.5389	-380.6776	287.8946	987.3657	-432.8	322.7255	841.6835	-473.7853	336.4104	764.707	-457.7643	358.5427	775.1162	-493.5511	351.5106	689.5601	-468.6781	366.1547	698.7246	-510.6191	351.6222	909.5564	-76.1418	169.4824	929.8096	-169.5836	368.1252	892.7479	-335.1146	176.2269	922.9216	-272.2307	269.7691	972.2855	-53.6426	282.2676	940.9775	-378.626	101.0906	1294.8545	-158.3593	119.7647	1220.8293	-90.3045	136.5349	1389.0811	-54.0823
104	0.515	192.3688	1374.3372	-245.7956	328.7834	1322.3187	-223.6081	156.3674	1342.364	-115.1889	185.4319	1378.1874	-97.2316	188.0741	1396.782	-137.4118	220.6047	1323.0537	-398.4274	260.9568	1316.5192	-429.277	282.4385	1354.1346	-400.8557	390.5466	1130.8772	-207.3072	158.3101	1190.973	-244.4852	264.9959	1474.9501	-78.8131	352.8084	1556.0555	13.5586	295.7886	1579.0256	13.7445	335.2949	1741.1442	27.6801	376.4636	1807.5278	3.3075	364.9096	1800.7084	54.1106	396.2493	1889.0464	6.2713	389.0738	1883.16	53.4866	344.5332	1126.9034	-425.6488	296.4195	993.5768	-380.7012	287.9015	987.3709	-432.8785	322.7993	841.7398	-473.8447	336.4483	764.7612	-457.8177	358.6013	775.1542	-493.6042	351.6248	689.6033	-468.7448	366.2292	698.7497	-510.6745	351.6366	909.5599	-76.1736	169.1562	929.9968	-169.6303	368.1426	892.7457	-335.1142	176.2252	922.9162	-272.2332	269.7911	972.2843	-53.6362	282.0869	941.135	-378.7066	101.0827	1294.8505	-158.3471	119.7598	1220.8075	-90.2922	136.5544	1389.0524	-54.0758
105	0.52	192.3992	1374.3506	-245.8018	328.7896	1322.3279	-223.5979	156.39	1342.3332	-115.1863	185.4418	1378.1683	-97.237	188.0555	1396.7788	-137.4	220.6015	1323.056	-398.4346	260.9862	1316.524	-429.2867	282.4407	1354.1361	-400.8649	390.5658	1130.9539	-207.3615	158.3329	1190.9781	-244.5192	265.0291	1474.9397	-78.8376	352.8493	1556.0582	13.5174	295.8028	1579.0199	13.7106	335.2985	1741.1528	27.6677	376.4558	1807.5265	3.292	364.9099	1800.7241	54.0812	396.244	1889.0651	6.2348	389.0778	1883.1782	53.4646	344.5417	1126.9283	-425.6614	296.4712	993.5886	-380.728	287.9142	987.4449	-432.866	322.8442	841.7634	-473.9051	336.5028	764.7696	-457.8719	358.6794	775.1727	-493.6627	351.6572	689.6559	-468.8763	366.2761	698.751	-510.7987	351.6385	909.5365	-76.1667	169.5041	929.8169	-169.5805	368.1575	892.7495	-335.1106	176.2665	922.9298	-272.2416	269.8061	972.2919	-53.6561	282.2708	940.9834	-378.6846	101.1014	1294.8355	-158.348	119.8247	1220.8091	-90.3239	136.5622	1389.0212	-54.0844
106	0.525	192.4136	1374.3429	-245.8176	328.797	1322.3285	-223.6194	156.4149	1342.3297	-115.2069	185.4638	1378.1727	-97.2462	188.0859	1396.7782	-137.4198	220.5985	1323.0958	-398.4572	260.9796	1316.5411	-429.3021	282.4303	1354.1692	-400.8737	390.5841	1130.9537	-207.3637	158.3391	1190.9622	-244.5358	265.0516	1474.9651	-78.8619	352.8446	1556.0758	13.507	295.8117	1579.0212	13.6956	335.3103	1741.1608	27.6699	376.4366	1807.5498	3.2906	364.88	1800.7333	54.0864	396.232	1889.0631	6.2214	389.0559	1883.1658	53.4698	344.5713	1126.9368	-425.6728	296.4963	993.6013	-380.7748	287.9616	987.4297	-432.958	322.8917	841.7764	-473.9584	336.5838	764.8043	-457.9296	358.7436	775.2326	-493.7517	351.7406	689.6571	-468.9378	366.3473	698.8037	-510.8665	351.723	909.6033	-76.1958	169.5377	929.8178	-169.5875	368.2226	892.7624	-335.0958	176.286	922.9194	-272.2412	269.7795	972.3397	-53.6486	282.248	941.0374	-378.6906	101.1191	1294.8208	-158.3246	119.8567	1220.8238	-90.3393	136.5886	1388.9796	-54.0954
